<svg width="24" height="24" viewBox="0 0 24 24" fill="none" xmlns="http://www.w3.org/2000/svg">
<path fill-rule="evenodd" clip-rule="evenodd" d="M0.0514788 10.8429C0.0171931 10.9372 0 11.04 0 11.1429C0 11.22 0.00858817 11.2886 0.0171596 11.3657C0.00858817 11.5714 0 11.7857 0 12C0 18.6257 5.37429 24 12 24C18.6257 24 24 18.6257 24 12C24 11.7857 23.9914 11.5714 23.9828 11.3657C23.9914 11.2886 24 11.22 24 11.1429C24 11.04 23.9828 10.9372 23.9485 10.8429C23.3571 4.75716 18.24 0 12 0C5.76 0 0.642907 4.75716 0.0514788 10.8429ZM12 1.71429C11.1171 1.71429 10.0458 2.52855 9.14575 4.48284C8.27147 6.35998 7.71429 9.01714 7.71429 12C7.71429 12.2229 7.71429 12.4372 7.72287 12.66C9.02572 12.7886 10.4743 12.8571 12 12.8571C13.5257 12.8571 14.9743 12.7886 16.2771 12.66C16.2857 12.4372 16.2857 12.2229 16.2857 12C16.2857 9.01714 15.7285 6.35998 14.8542 4.48284C13.9542 2.52855 12.8829 1.71429 12 1.71429ZM16.1657 14.3915C14.8714 14.5115 13.4657 14.5714 12 14.5714C10.5343 14.5714 9.12858 14.5115 7.8343 14.3915C8.04858 16.3886 8.51147 18.1629 9.14575 19.5172C10.0458 21.4714 11.1171 22.2857 12 22.2857C12.8829 22.2857 13.9542 21.4714 14.8542 19.5172C15.4885 18.1629 15.9514 16.3886 16.1657 14.3915ZM6 12.4457C6 12.3 6 12.1457 6 12C6 8.82857 6.59141 5.9143 7.58569 3.76287C7.80855 3.2743 8.06571 2.81145 8.34856 2.38288C4.73142 3.75431 2.09146 7.11426 1.7486 11.1171C1.81718 11.1857 1.93714 11.28 2.14286 11.3915C2.60571 11.6486 3.33431 11.8972 4.31145 12.1286C4.82574 12.24 5.39143 12.3514 6 12.4457ZM1.77424 13.1143C2.37424 13.38 3.11139 13.6028 3.92568 13.8C4.58568 13.9457 5.3057 14.0829 6.09427 14.1858C6.29999 16.5 6.82284 18.5914 7.58569 20.2371C7.80855 20.7257 8.06571 21.1885 8.34856 21.6171C4.79999 20.2714 2.19424 17.0229 1.77424 13.1143ZM22.2514 11.1171C21.9085 7.11426 19.2686 3.75431 15.6514 2.38288C15.9343 2.81145 16.1915 3.2743 16.4143 3.76287C17.4086 5.9143 18 8.82857 18 12C18 12.1457 18 12.3 18 12.4457C18.6086 12.3514 19.1743 12.24 19.6885 12.1286C20.6657 11.8972 21.3943 11.6486 21.8571 11.3915C22.0629 11.28 22.1828 11.1857 22.2514 11.1171ZM22.2258 13.1143C21.6258 13.38 20.8886 13.6028 20.0743 13.8C19.4143 13.9457 18.6943 14.0829 17.9057 14.1858C17.7 16.5 17.1772 18.5914 16.4143 20.2371C16.1915 20.7257 15.9343 21.1885 15.6514 21.6171C19.2 20.2714 21.8058 17.0229 22.2258 13.1143Z" fill="#2E3A59"/>
</svg>
