<svg width="24" height="24" viewBox="0 0 24 24" fill="none" xmlns="http://www.w3.org/2000/svg">
<path d="M16.95 1C15.036 1 13.199 1.97112 12 3.50572C10.801 1.97112 8.964 1 7.05 1C3.662 1 1 3.90136 1 7.59401C1 12.1259 4.74 15.8185 10.405 21.4294L12 23L13.595 21.4174C19.26 15.8185 23 12.1259 23 7.59401C23 3.90136 20.338 1 16.95 1ZM12.11 19.643L12 19.7629L11.89 19.643C6.654 14.4757 3.2 11.0589 3.2 7.59401C3.2 5.19619 4.85 3.39782 7.05 3.39782C8.744 3.39782 10.394 4.58474 10.977 6.22725H13.034C13.606 4.58474 15.256 3.39782 16.95 3.39782C19.15 3.39782 20.8 5.19619 20.8 7.59401C20.8 11.0589 17.346 14.4757 12.11 19.643Z" fill="#2E3A59"/>
</svg>
