<svg width="20" height="24" viewBox="0 0 20 24" fill="none" xmlns="http://www.w3.org/2000/svg">
<path fill-rule="evenodd" clip-rule="evenodd" d="M9.99956 5.14258C7.49047 5.14258 5.4541 7.06258 5.4541 9.42829C5.4541 11.794 7.49047 13.714 9.99956 13.714C12.5086 13.714 14.545 11.794 14.545 9.42829C14.545 7.06258 12.5086 5.14258 9.99956 5.14258ZM7.27228 9.42829C7.27228 8.00543 8.49047 6.85686 9.99956 6.85686C11.5086 6.85686 12.7268 8.00543 12.7268 9.42829C12.7268 10.8511 11.5086 11.9997 9.99956 11.9997C8.49047 11.9997 7.27228 10.8511 7.27228 9.42829Z" fill="#2E3A59"/>
<path fill-rule="evenodd" clip-rule="evenodd" d="M9.43637 23.82C9.43637 23.82 9.43636 23.82 10 23.1428L9.43637 23.82C9.76364 24.06 10.2364 24.06 10.5636 23.82L10 23.1428C10.5636 23.82 10.5636 23.82 10.5636 23.82V23.8114H10.5727L10.5909 23.7943C10.6182 23.7771 10.6454 23.76 10.6727 23.7257C10.7454 23.6743 10.8454 23.5971 10.9818 23.4943C11.2363 23.2886 11.6 22.9885 12.0364 22.6028C12.9091 21.84 14.0818 20.7428 15.2455 19.4057C17.5546 16.7828 20 13.0885 20 9.16279C20 4.07994 15.5 0 10 0C4.5 0 0 4.07994 0 9.16279C0 13.0885 2.44544 16.7828 4.75453 19.4057C5.91816 20.7428 7.09092 21.84 7.96365 22.6028C8.40001 22.9885 8.76368 23.2886 9.01822 23.4943C9.15459 23.5971 9.25455 23.6743 9.32728 23.7257C9.35455 23.76 9.3818 23.7771 9.40907 23.7943L9.42727 23.8114H9.43637V23.82ZM1.81818 9.16279C1.81818 5.07423 5.45455 1.71428 10 1.71428C14.5455 1.71428 18.1818 5.07423 18.1818 9.16279C18.1818 12.4628 16.0818 15.7628 13.8454 18.3171C12.7363 19.5771 11.6364 20.6229 10.8 21.3428C10.4909 21.6171 10.2182 21.8485 10 22.0285C9.78182 21.8485 9.50909 21.6171 9.2 21.3428C8.36363 20.6229 7.26365 19.5771 6.15456 18.3171C3.9182 15.7628 1.81818 12.4628 1.81818 9.16279Z" fill="#2E3A59"/>
</svg>
