<svg width="24" height="24" viewBox="0 0 24 24" fill="none" xmlns="http://www.w3.org/2000/svg">
<path fill-rule="evenodd" clip-rule="evenodd" d="M11.9995 0C8.43097 0 5.53809 2.68629 5.53809 6C5.53809 9.31371 8.43097 12 11.9995 12C15.5681 12 18.461 9.31371 18.461 6C18.461 2.68629 15.5681 0 11.9995 0ZM7.38421 6C7.38421 3.63343 9.45095 1.71429 11.9995 1.71429C14.5481 1.71429 16.6148 3.63343 16.6148 6C16.6148 8.36657 14.5481 10.2857 11.9995 10.2857C9.45095 10.2857 7.38421 8.36657 7.38421 6Z" fill="#2E3A59"/>
<path fill-rule="evenodd" clip-rule="evenodd" d="M4.24996 13.714C3.03152 13.714 1.80753 14.2806 1.21677 15.3872C0.733084 16.2923 0.141407 17.638 0.0121785 19.03C-0.082897 20.0603 0.378626 21.1214 1.39953 21.7111C3.01582 22.6429 6.34624 23.9997 12 23.9997C17.6538 23.9997 20.9842 22.6429 22.6005 21.7111C23.6214 21.1214 24.0829 20.0603 23.9878 19.03C23.8586 17.638 23.2669 16.2923 22.7832 15.3872C22.1925 14.2806 20.9685 13.714 19.75 13.714H4.24996ZM2.87089 16.1483C3.10166 15.7154 3.61767 15.4283 4.24996 15.4283H19.75C20.3823 15.4283 20.8983 15.7154 21.1291 16.1483C21.5722 16.978 22.0485 18.0983 22.1481 19.1765C22.1925 19.6557 21.9774 20.0517 21.6266 20.2548C20.3094 21.0143 17.3178 22.2854 12 22.2854C6.68223 22.2854 3.6906 21.0143 2.37339 20.2548C2.02262 20.0517 1.80755 19.6557 1.85185 19.1765C1.95155 18.0983 2.42782 16.978 2.87089 16.1483Z" fill="#2E3A59"/>
</svg>
